<svg id="INTELBRAS_LOGO" data-name="INTELBRAS LOGO" xmlns="http://www.w3.org/2000/svg" width="144.986" height="27.769" viewBox="0 0 144.986 27.769">
  <path id="Caminho_7" data-name="Caminho 7" d="M67.857,5.138a9.422,9.422,0,0,0-14.289,8.041V24.934h5.3V13.179a4.121,4.121,0,0,1,5.894-3.712A12.382,12.382,0,0,1,67.857,5.138Z" transform="translate(39.4 2.782)" fill="#fff"/>
  <path id="Caminho_8" data-name="Caminho 8" d="M5.631,2.823A2.812,2.812,0,1,0,5.416,3.9,2.818,2.818,0,0,0,5.631,2.823Z" transform="translate(0 0)" fill="#fff"/>
  <path id="Caminho_9" data-name="Caminho 9" d="M13.722,3.782a9.414,9.414,0,0,0-9.417,9.4V24.935h5.3V13.179a4.121,4.121,0,1,1,8.242,0V24.935h5.3V13.179a9.415,9.415,0,0,0-9.43-9.4Z" transform="translate(3.166 2.782)" fill="#fff"/>
  <path id="Caminho_10" data-name="Caminho 10" d="M.1,4.567V24.941H5.4V3.782A18.447,18.447,0,0,0,.1,4.567Z" transform="translate(0.072 2.782)" fill="#fff"/>
  <path id="Caminho_11" data-name="Caminho 11" d="M41.376.217A18.811,18.811,0,0,0,36.084,1V27.561h5.3V.884Z" transform="translate(26.54 0.159)" fill="#fff"/>
  <path id="Caminho_12" data-name="Caminho 12" d="M50.965,6.4a10.524,10.524,0,0,0-5.3,1.422V.217h-.008A18.636,18.636,0,0,0,40.369,1V16.98A10.6,10.6,0,1,0,50.969,6.4Zm0,15.867a5.295,5.295,0,0,1-5.3-5.286v-.041a5.3,5.3,0,1,1,5.3,5.328Z" transform="translate(29.692 0.159)" fill="#fff"/>
  <path id="Caminho_13" data-name="Caminho 13" d="M84.142,11.718H80.314a1.322,1.322,0,0,1,0-2.644h8.715a18.368,18.368,0,0,0,.784-5.292h-9.5a6.614,6.614,0,1,0,0,13.226h3.828a1.323,1.323,0,0,1,0,2.645h-9.2a18.436,18.436,0,0,0-.782,5.289h9.981a6.612,6.612,0,1,0,0-13.223Z" transform="translate(54.14 2.781)" fill="#fff"/>
  <path id="Caminho_14" data-name="Caminho 14" d="M81.684,14.38a10.6,10.6,0,1,0-5.3,9.158v1.42h5.3Zm-5.3,0v.052a5.321,5.321,0,1,1,0-.052Z" transform="translate(44.492 2.762)" fill="#fff"/>
  <path id="Caminho_15" data-name="Caminho 15" d="M27.424,21.855l-.037.017a3.9,3.9,0,0,1-1.072.341c-.073.012-.148.024-.218.032h-.012c-.078.012-.149.017-.223.023H25.85c-.076,0-.154.008-.233.008A4.122,4.122,0,0,1,21.5,18.16V11.7h4.012a21.432,21.432,0,0,0,.665-5.292H21.49V.216a18.471,18.471,0,0,0-5.3.782V18.156a9.4,9.4,0,0,0,9.421,9.4h.064c.108,0,.213,0,.316-.008a1.033,1.033,0,0,0,.157-.008l.233-.015.166-.015.233-.027.266-.037c.07-.009.152-.023.221-.035l.206-.039a1.056,1.056,0,0,1,.149-.029l.223-.054.1-.027q.415-.106.811-.245l.037-.012a9.53,9.53,0,0,0,1.728-.829A12.391,12.391,0,0,1,27.424,21.855Z" transform="translate(11.909 0.159)" fill="#fff"/>
  <path id="Caminho_16" data-name="Caminho 16" d="M43.968,17.031a21.345,21.345,0,0,0-5.125-1.33,5.307,5.307,0,0,1-5.821,3.909,5.42,5.42,0,0,1-1.682-.515l7.568-5.8,4.419-3.386a10.579,10.579,0,1,0,.642,7.12ZM28.456,13.669A5.3,5.3,0,0,1,34.4,9.11a5.4,5.4,0,0,1,1.682.515l-7.568,5.793a5.163,5.163,0,0,1-.062-1.753Z" transform="translate(17.041 2.788)" fill="#fff"/>
</svg>
